<svg version="1.0" xmlns="http://www.w3.org/2000/svg"
width="700" height="700" viewBox="0 0 700 700" preserveAspectRatio="xMidYMid meet">

<g transform="translate(0,700) scale(0.1,-0.1)" fill="#000000" stroke="none">

<path d="M3445 6549 c-320 -40 -604 -253 -750 -560 -55 -118 -82 -214 -97
-350 -20 -185 27 -530 104 -748 138 -394 399 -676 696 -752 472 -121 937 287
1086 952 14 63 33 187 43 276 28 261 1 429 -102 638 -145 296 -409 493 -724
540 -105 16 -151 17 -256 4z m-345 -668 c197 -69 289 -85 490 -85 217 0 314
22 453 107 59 36 51 43 141 -138 76 -153 106 -241 115 -336 l6 -68 54 64 c29
36 57 65 61 65 3 0 5 -12 4 -27 -2 -16 -8 -80 -15 -143 -14 -146 -65 -348
-117 -469 -69 -158 -127 -245 -242 -361 -113 -113 -176 -156 -292 -198 -64
-23 -89 -26 -193 -26 -104 0 -129 3 -193 26 -102 37 -172 81 -263 166 -193
181 -318 431 -374 754 -25 142 -23 146 60 103 27 -13 50 -23 52 -22 1 2 -2 41
-7 88 -21 184 -5 381 39 466 24 48 68 86 91 79 8 -3 67 -23 130 -45z"/>

<path d="M2641 4249 c-357 -75 -685 -322 -854 -642 l-25 -48 -260 1 c-299 1
-316 -3 -382 -77 -38 -43 -59 -93 -60 -138 0 -11 107 -531 239 -1155 132 -624
243 -1152 246 -1172 9 -60 62 -128 124 -160 l53 -28 1838 0 1838 0 53 28 c62
32 115 101 124 160 3 20 114 548 246 1172 132 624 239 1143 239 1154 0 42 -26
100 -62 140 -63 73 -83 77 -374 76 l-255 -1 -33 62 c-120 226 -356 441 -601
549 -100 43 -240 83 -337 95 -52 7 -58 6 -58 -11 -1 -60 -138 -303 -311 -551
l-100 -143 -129 0 c-94 0 -129 -3 -132 -12 -3 -7 -8 37 -11 97 l-7 110 27 20
c66 47 113 114 128 184 6 30 5 33 -10 27 -66 -25 -179 -46 -250 -46 -71 0
-186 21 -247 45 -14 6 -18 2 -18 -19 0 -44 46 -122 100 -168 48 -41 50 -45 50
-94 0 -28 -3 -72 -6 -98 l-7 -46 -126 0 -126 0 -82 129 c-165 259 -272 462
-289 551 -8 36 -19 37 -153 9z m1018 -719 c176 0 240 3 250 13 11 10 13 9 7
-1 -6 -10 189 -12 964 -12 960 0 972 0 1018 -20 26 -12 58 -31 71 -43 31 -28
71 -114 71 -152 1 -24 -456 -2151 -491 -2288 -12 -47 -69 -111 -123 -140 l-41
-22 -1825 0 -1825 0 -41 22 c-54 29 -111 93 -123 140 -35 138 -492 2264 -491
2289 1 76 61 159 139 193 50 21 50 21 1120 21 844 0 1071 3 1072 13 0 9 2 9 6
0 3 -10 61 -13 242 -13z"/>

<path d="M3499 2285 c-56 -30 -77 -112 -44 -174 15 -30 69 -61 105 -61 36 0
90 31 105 61 19 36 19 92 0 129 -28 54 -109 76 -166 45z"/>

<path d="M1478 737 c-51 -48 -44 -121 14 -157 33 -20 52 -20 2066 -20 2241 0
2073 -5 2108 62 13 26 14 38 5 69 -23 76 176 69 -2114 69 l-2054 0 -25 -23z"/>

</g>
</svg>
