<svg version="1.2" xmlns="http://www.w3.org/2000/svg" viewBox="0 0 2415 1710" width="2415" height="1710"><defs><linearGradient id="P" gradientUnits="userSpaceOnUse"/><linearGradient id="g1" x1="2381.9" y1="526.9" x2="1882.4" y2="859.9" href="#P"><stop stop-color="#42c5d7"/><stop offset="1" stop-color="#4468b1"/></linearGradient><linearGradient id="g2" x1="201.9" y1="16.4" x2="1763.7" y2="16.4" href="#P"><stop stop-color="#42c5d7"/><stop offset="1" stop-color="#4f6fb6"/></linearGradient><linearGradient id="g3" x1="1577.3" y1="1171.5" x2="1577.3" y2="1501.9" href="#P"><stop stop-color="#42c5d7"/><stop offset="1" stop-color="#4f6fb6"/></linearGradient><linearGradient id="g4" x1="23.6" y1="1412.2" x2="982.8" y2="1412.2" href="#P"><stop stop-color="#42c5d7"/><stop offset="1" stop-color="#4f6fb6"/></linearGradient><linearGradient id="g5" x1="1299.9" y1="346.2" x2="1340.9" y2="346.2" href="#P"><stop stop-color="#f8a871"/><stop offset="1" stop-color="#fdd671"/></linearGradient><linearGradient id="g6" x1="1285.2" y1="346.2" x2="1302.3" y2="346.2" href="#P"><stop stop-color="#f8a871"/><stop offset="1" stop-color="#fdd671"/></linearGradient><linearGradient id="g7" x1="1182" y1="332.5" x2="1313.5" y2="332.5" href="#P"><stop stop-color="#f8a871"/><stop offset="1" stop-color="#fdd671"/></linearGradient><linearGradient id="g8" x1="1577.3" y1="1168.7" x2="1577.3" y2="1553.3" href="#P"><stop stop-color="#42c5d7"/><stop offset="1" stop-color="#4468b1"/></linearGradient><linearGradient id="g9" x1="1577.3" y1="1154.4" x2="1577.3" y2="1471.5" href="#P"><stop stop-color="#42c5d7"/><stop offset="1" stop-color="#4468b1"/></linearGradient></defs><style>.a{fill:#5c81fe}.b{fill:url(#g1)}.c{fill:url(#g2)}.d{fill:url(#g3)}.e{fill:url(#g4)}.f{fill:#e0e0e0}.g{fill:#1487e3}.h{fill:#78c2ff}.i{fill:#ff8761}.j{fill:#323657}.k{fill:url(#g5)}.l{fill:url(#g6)}.m{fill:url(#g7)}.n{fill:#ffd770}.o{fill:#fff}.p{fill:url(#g8)}.q{fill:url(#g9)}.r{fill:#609ae8}.s{fill:#9cc7ff}.t{fill:#d7d7e6}.u{fill:#2a6993}.v{fill:#ead8cf}.w{fill:#da9b5b}.x{fill:#424773}.y{fill:#292c47}.z{fill:#eea886}.A{fill:#754836}.B{fill:#e2d2ca}.C{fill:#efaa88}.D{fill:#e8734d}.E{fill:#eea987}.F{fill:#a77860}.G{fill:#1d3b54}.H{fill:#857b77}.I{fill:#918682}</style><path class="a" d="m2160.9 1681.7v-101.6h-29.4-86-1517.6v-165.9h1370.9 232.7 29.4v-103.3l240.5 185.4z"/><path class="b" d="m2011.1 187.3c162 77.1 231 271.6 153.9 433.6-77.2 162-271.7 231-433.6 153.9-162-77.2-231-271.7-153.9-433.6l72 34.2c-58.2 122.3-6.1 269.1 116.1 327.4 122.3 58.2 269.1 6.1 327.4-116.2 58.2-122.2 6.1-269.1-116.2-327.3l-27.2 57.1-76.4-150.6 165.1-35.6z"/><path fill-rule="evenodd" class="c" d="m982.8 1580.1c-105.4 0-207.6-20.6-304-61.4-93-39.3-176.5-95.6-248.2-167.3-71.6-71.7-127.9-155.2-167.3-248.2-40.7-96.3-61.4-198.6-61.4-304 0-105.3 20.7-207.6 61.4-303.9 39.4-93 95.7-176.5 167.3-248.2 71.7-71.7 155.2-128 248.2-167.3 96.4-40.8 198.6-61.4 304-61.4 105.4 0 207.7 20.6 304 61.4 93 39.3 176.5 95.6 248.2 167.3 71.7 71.7 128 155.2 167.3 248.2 40.7 96.3 61.4 198.6 61.4 303.9 0 105.4-20.7 207.7-61.4 304-39.3 93-95.6 176.5-167.3 248.2-71.7 71.7-155.2 128-248.2 167.3-96.3 40.8-198.6 61.4-304 61.4zm0-1395.8c-339.1 0-615 275.8-615 614.9 0 339.1 275.9 615 615 615 339.1 0 615-275.9 615-615 0-339.1-275.9-614.9-615-614.9z"/><path class="d" d="m1575.3 1133.4v232.9h-1177.3v-232.9z"/><path class="e" d="m982.8 1414.2v165.9h-959.2v-165.9z"/><path class="f" d="m740.4 547.2h-191.3v-19.6h191.3z"/><path class="f" d="m932 694.7h-138.1v-19.6h138.1z"/><path class="g" d="m1045.1 694.7h-91.6v-19.6h91.6z"/><path class="g" d="m1232.4 1286.7h-91.7v-19.6h91.7z"/><path class="g" d="m642.9 1065.5h-91.6v-19.6h91.6z"/><path class="f" d="m1284.5 694.7h-221.2v-19.6h221.2z"/><path class="f" d="m693.4 991.2h-142.1v-19.6h142.1z"/><path class="f" d="m1075.5 1139.2h-142.2v-19.5h142.2z"/><path class="f" d="m836.2 1139.2h-86.7v-19.5h86.7z"/><path class="g" d="m723.2 1139.2h-171.9v-19.5h171.9z"/><path class="f" d="m646.1 1213h-94.8v-19.6h94.8z"/><path class="h" d="m913.4 547.2h-135.8v-19.6h135.8z"/><path class="g" d="m913.4 768.4h-135.8v-19.6h135.8z"/><path class="f" d="m767.7 842.1h-58v-19.6h58z"/><path class="h" d="m782 917h-130.3v-19.6h130.3z"/><path class="g" d="m981.6 917h-179.9v-19.6h179.9z"/><path class="g" d="m687.1 842.7h-135.8v-19.6h135.8z"/><path class="g" d="m631.8 917h-80.5v-19.6h80.5z"/><path class="i" d="m871.1 842.7h-76v-19.6h76z"/><path class="i" d="m629.6 1286.7h-76.1v-19.6h76.1z"/><path class="h" d="m686.5 694.7h-135.8v-19.6h135.8z"/><path class="h" d="m806.6 1065.5h-135.8v-19.6h135.8z"/><path class="h" d="m808.3 1213h-135.8v-19.6h135.8z"/><path class="h" d="m1049.5 1213h-135.8v-19.6h135.8z"/><path class="h" d="m744.3 768.4h-193.6v-19.6h193.6z"/><path class="h" d="m1109.8 1286.7h-135.8v-19.6h135.8z"/><path class="g" d="m1122.9 547.2h-173v-19.6h173z"/><path class="g" d="m831.2 1286.7h-172.9v-19.6h172.9z"/><path class="g" d="m1434.5 1286.7h-173v-19.6h173z"/><path class="g" d="m1407.8 1139.2h-173v-19.5h173z"/><path class="g" d="m1359.5 768.4h-172.9v-19.6h172.9z"/><path class="i" d="m900.7 1139.2h-37.3v-19.5h37.3z"/><path class="i" d="m1423.8 547.2h-172.9v-19.6h172.9z"/><path class="i" d="m1154.9 768.4h-101.4v-19.6h101.4z"/><path class="i" d="m1075.5 1066.6h-101.5v-19.6h101.5z"/><path class="f" d="m1218.2 547.2h-63.3v-19.6h63.3z"/><path class="f" d="m1013.2 768.4h-63.3v-19.6h63.3z"/><path class="g" d="m648.2 620.9h-99.1v-19.6h99.1z"/><path class="g" d="m891.6 991.8h-78.2v-19.6h78.2z"/><path class="g" d="m704.5 620.9h-32v-19.6h32z"/><path class="f" d="m1339.8 1213h-264.3v-19.6h264.3z"/><path class="i" d="m760.6 620.9h-32.6v-19.6h32.6z"/><path class="g" d="m1304.7 620.9h-86.5v-19.6h86.5z"/><path class="i" d="m1391.2 694.7h-86.5v-19.6h86.5z"/><path class="i" d="m1198.1 1139.2h-86.5v-19.5h86.5z"/><path class="i" d="m946.4 1286.7h-86.5v-19.6h86.5z"/><path class="g" d="m1195.3 620.9h-184v-19.6h184z"/><path class="g" d="m947.5 1066.6h-107.5v-19.6h107.5z"/><path class="g" d="m886.8 1213h-53.7v-19.6h53.7z"/><path class="h" d="m985.2 620.9h-63.4v-19.6h63.4z"/><path class="i" d="m772 694.7h-63.3v-19.6h63.3z"/><path class="i" d="m784.7 991.8h-63.4v-19.6h63.4z"/><path class="g" d="m897.7 620.9h-110.3v-19.6h110.3z"/><path class="j" d="m524.9 1343.5q-0.1 0-0.1 0c0.3 0.2 0.4 0.2 0.1 0z"/><path class="k" d="m1299.9 348.2h31.4l9.6 20h-31.4z"/><path class="l" d="m1285.2 348.2h7.5l9.6 20h-7.5z"/><path class="m" d="m1182 334.5h127.3l4.2 9.9h-127.3z"/><path class="n" d="m1831.8 861.3h100.1v7.1h-100.1z"/><path class="n" d="m1831.8 874.6h100.1v29.5h-100.1z"/><path class="n" d="m1784.7 914h59.1v4.4h-59.1z"/><path class="n" d="m1784.7 920.3h59.1v12h-59.1z"/><path class="n" d="m1814.7 816.3h4.4v82.7h-4.4z"/><path class="o" d="m534.7 253.1h78.8v14.3h-78.8z"/><path class="o" d="m534.7 246.4h78.8v2.7h-78.8z"/><path class="i" d="m1312.9 530.8l103.9-103.9h422.9v5.2h-420.7l-102.4 102.4z"/><path class="p" d="m1575.3 1362.7v232.9h-1177.3v-232.9z"/><path class="h" d="m471.6 574.4h-368.2v-5.2h370.3l195.7 195.7-3.7 3.7z"/><path class="g" d="m892 369.5h-230.1v-5.2h232.3l165.2 165.2-3.7 3.7z"/><path class="q" d="m916.6 1593l230.2-230.3h428.5v232.9z"/><path class="r" d="m1648.6 404.7h-37.2v-112.8h37.2z"/><path class="s" d="m1774 346.2h-288c-9.1 0-16.4-7.3-16.4-16.3v-193.6c0-9 7.3-16.4 16.4-16.4h288c9.1 0 16.4 7.4 16.4 16.4v193.6c0 9-7.3 16.3-16.4 16.3z"/><path class="o" d="m1777.8 310.7h-295.6v-177.8h295.6z"/><path class="s" d="m1546.5 400.4h167v8.5h-167z"/><path class="t" d="m1667.1 186.8h95v109.9h-95z"/><path class="t" d="m1554.5 186.8h97.9v13.7h-97.9z"/><path class="t" d="m1554.5 215h97.9v13.6h-97.9z"/><path class="t" d="m1554.5 240.2h97.9v56.5h-97.9z"/><path class="t" d="m1499.2 183.7h41.5v113h-41.5z"/><path class="t" d="m1500.1 146.6h263v28.2h-263z"/><path class="s" d="m695.2 324.2v-199c0-8.6 6.9-15.6 15.6-15.6h131.6c8.6 0 15.6 7 15.6 15.6v199c0 8.6-7 15.6-15.6 15.6h-131.6c-8.7 0-15.6-7-15.6-15.6z"/><path class="o" d="m704.2 120.2h144.8v188.9h-144.8z"/><path class="t" d="m713.9 133.8h126v25.2h-126z"/><path class="t" d="m788.1 168.7h51.8v123.3h-51.8z"/><path class="t" d="m713.9 168.7h64.5v14.3h-64.5z"/><path class="t" d="m713.9 193.4h64.5v14.3h-64.5z"/><path class="t" d="m713.9 218.1h64.5v14.2h-64.5z"/><path class="t" d="m713.9 242.7h64.5v49.3h-64.5z"/><path class="r" d="m162 376.8c0-6.4 5.1-11.5 11.5-11.5h230.9c6.3 0 11.5 5.1 11.5 11.5v160.9h-253.9z"/><path class="o" d="m169.1 374.5h239.7v154h-239.7z"/><path class="s" d="m149.8 537.7h278.3v2.7c0 5.5-4.5 9.9-10 9.9h-258.3c-5.5 0-10-4.4-10-9.9z"/><path class="t" d="m179.1 385.7h219.4v21.4h-219.4z"/><path class="t" d="m323.3 419.2h75.2v98.1h-75.2z"/><path class="t" d="m238.4 419.2h75.2v98.1h-75.2z"/><path class="t" d="m179.1 419.2h45.9v14h-45.9z"/><path class="t" d="m179.1 440.9h45.9v14h-45.9z"/><path class="t" d="m179.1 462.5h45.9v54.8h-45.9z"/><path class="u" d="m201.7 817.2v-21.5h-84v-22.2h84v-21.5l56.5 32.6z"/><path class="u" d="m174.2 680.4v21.5h84v22.3h-84v21.5l-56.5-32.7z"/><path class="u" d="m1041.3 344.3v-16.2h-63v-16.6h63v-16.1l42.3 24.4z"/><path class="u" d="m1020.7 241.8v16.1h62.9v16.6h-62.9v16.1l-42.4-24.4z"/><path fill-rule="evenodd" class="o" d="m1655.5 707.8c-5.6-0.4-10.8-2.5-14.9-6-4.6-3.9-7.1-9.2-7-14.7-0.8-11-4.2-22.3-7.1-30.1-13.4-10.7-20.6-27.2-19.3-44.3 2.2-28.5 27-49.8 55.5-47.7 28.4 2.2 49.8 27.1 47.6 55.5-1.2 15.5-9.1 29.4-21.8 38.3-3.8 10.5-6.2 20.1-6.9 28.6-0.1 11.4-10.9 20.6-24.1 20.5q-1 0-2-0.1zm6.8-138.6c-26.1-1.9-48.9 17.7-50.9 43.8-1.2 15.9 5.6 31.2 18.2 41.1l0.5 0.3 0.2 0.6c3 8 6.7 20.1 7.5 31.9v0.1c0 4.4 1.9 8.5 5.6 11.6 3.7 3.2 8.7 5 14.1 5 10.9 0.1 19.8-7.2 19.9-16.3v-0.1-0.1c0.8-9 3.2-19.2 7.4-30.3l0.2-0.7 0.6-0.4c11.9-8.1 19.4-21.1 20.5-35.5 2-26.1-17.7-49-43.8-51z"/><path class="o" d="m1645.9 690.2l-6.8-56.4 11.8 9.7 7.3-8.1 6.3 7.6 10.9-9.3-6.6 56.5-4.2-0.5 5.4-45.8-6.1 5.1-5.9-7.1-6.7 7.5-6.7-5.6 5.5 45.8z"/><path class="o" d="m1675.7 717.6l-36.7-0.2 0.1-14.8 36.7 0.2z"/><path class="o" d="m1681.6 711.6l-48.4-0.4 0.1-23.8 48.5 0.4z"/><path class="h" d="m1415.6 992.9h-144.8l-26.1 26.1v-26.1-123.9h170.9z"/><path class="j" d="m550 1076.3c0 0-5.4 75.9 9.4 85 9.3 5.7 46.4 24.9 45.3 28.5-1.1 3.6-20.9 32-20.9 32 0 0-71.2-46.9-73.5-61.6-2.2-14.4 3.5-111.1 13.3-115.6 7.3-3.3 11.2-0.6 20.4 6.3 13 9.6 6 25.4 6 25.4z"/><path class="v" d="m665.9 1079.6c0 0 4.9-1.3 8.8-1.8 3.4-0.5 11.2 17.9 11.2 17.9l-6.2 2.3z"/><path class="w" d="m655.5 1108.6l-14.5-28.4 26.8-3.7c0 0 12.5 24.1 13.3 24.7z"/><path class="x" d="m541.8 1628.5c0 0-2.2 15.4-2.5 17.7-0.3 2.3-24.6-1.4-24.6-1.4l-2-18.3c0 0 26-0.2 29.1 2z"/><path class="y" d="m539.5 1644.2c0 0 7.7 9.3 15.2 13.3 7.5 4 19.2 5.6 23.6 9.8 3.2 3 11.6 16-19.4 15.7-31-0.2-45.9 1.9-49.2-3.1-3.3-5 4.8-36.7 4.8-36.7 0 0 7.3 2.6 25 1z"/><path class="x" d="m663.5 1628.5c0 0-2.2 15.4-2.5 17.7-0.2 2.3-24.6-1.4-24.6-1.4l-1.9-18.3c0 0 26-0.2 29 2z"/><path class="y" d="m661.3 1644.2c0 0 7.7 9.3 15.2 13.3 7.4 4 34.8 7.3 39.3 11.5 3.1 3 8.4 15.2-35.1 14-31-0.8-45.9 1.9-49.2-3.1-3.4-5 4.8-36.7 4.8-36.7 0 0 6.9 2.8 25 1z"/><path class="y" d="m606.3 1323.3c-1.1 12.9-29.1 129.7-36 145.8-6.8 16.2-20.9 171.6-20.9 171.6l-39.6 0.3c0 0-1.3-76.9-0.8-97.4 0.6-20.4 11-100 14.9-138.2 3.4-34.3 7.1-69.4 5.4-102.2-1.7-32.9 21.2-69.2 21.2-69.2 0 0 56.9 76.3 55.8 89.3z"/><path class="y" d="m670.8 1238.9c0 0 9.1 89.3 11.3 109.4 2.3 20.1 0.7 107.1 1.9 119.7 1.1 12.6-7.6 145.4-9.8 170.7l-43.5-0.3c0 0-3.1-107.4-3.1-159.7 0-52.2-13.3-112.9-28.7-147.4-15.3-34.4-50.5-35.2-59.9-99.1 0 0 119.1-13.5 131.8 6.7z"/><path class="z" d="m574.6 927.8c0 0 27.3-18.2 46.4 1.3 19.1 19.5 28.5 65.3 14.8 74.4-13.7 9.2-37 11.6-48.1-0.8-11.1-12.4-22.9-31.4-25.8-45.2-2.9-13.8 5.8-23.9 12.7-29.7z"/><path class="z" d="m626.5 1006.6c0 0-0.3 19.2 1.8 23.3 2.1 4-39.8 4.1-39.8 4.1 0 0-3.4-22.2-9.8-40.9-6.4-18.8 47.8 13.5 47.8 13.5z"/><path class="A" d="m558.3 953.1c-4.8-15.9 21.6-30.3 21.6-30.3 33.8-21.6 57.2 13.7 51.5 20.9-5.7 7.3 2.1 19.8 2.1 19.8l-5.1 0.9-4.1-3.7c0 0 0.7 2.9-3.7 5.7-4.4 2.8-14.8 21.3-25.9 25.9-11.1 4.5-15 0.5-15 0.5-8.2-6.5-16.6-23.9-21.4-39.7z"/><path class="B" d="m583.8 1027.4v-9c4.3-1.7 39.8 1.7 43.3 2.4 3.5 0.8 3.7 8.6 3.7 8.6-38.7 3.2-47-2-47-2z"/><path class="z" d="m623.6 971.9c-3.5 1.8-12.7-7.7-12-16.6 0.6-8.9 9.3-2.8 10.6-0.2 3.2 6.4 4.8 15 1.4 16.8z"/><path class="j" d="m771.6 1121.5q-0.1 0-0.1 0 0.4 0.2 0.1 0z"/><path class="j" d="m735.3 1108.6c0 0 23.8 40.7 29.9 44 16.6 8.8 75 44.5 76.9 45.2 2.2 0.7-16.5 32.4-17.3 33.5-1.1 1.9-29-16-46.4-23.8-8-3.6-42.8-21.4-52.3-31.7-16-17.4-44.8-52.7-50.8-60.8 0 0-4.3 50.4-3.2 61.3 0.7 7.1 16.8 144.5 16.3 148.2-0.5 3.8-80.7 8.7-112.8 5.1-32.1-3.5-50.9-9.1-50.9-9.1 0 0 17.6-100.7 16.8-112.7-1.7-26.2-9.8-85.1-9.8-85.1l-14.1-29.7c4.4-9.9 4.4-47.6 6-48.4 17-7.7 60.2-17.2 60.2-17.2l47 2c0 0 26.5 6.3 51.8 10.8 13.9 6.2 52.7 68.4 52.7 68.4z"/><path class="A" d="m566.8 932.5c0 0-39 10.4 11.4 58.8z"/><path class="C" d="m864.3 1238.4c0 0-3.4 0-5-0.7 0 0-2.6-1.4-4.6-2.4-0.6-0.3-1.1-0.5-1.5-0.6-1.6-0.5-5.1-1.2-8.5-3.4-3.4-2.2-14.5-11.4-14.5-11.4l6.1-10.9 2.5-10.5c0 0 24.6 0.9 28 2.6q0.5 0.2 0.9 0.5c2.7 1.8 4 4.2 5.4 5.3 0.5 0.4 5 4.7 4.9 6.5-0.2 2.6-1.3 4.4-2.9 5.2 0 0-0.5 5.1-3 7.5 0 0-0.3 4.7-4.2 6.8 0 0-0.9 4.7-3.6 5.5z"/><path class="D" d="m290.9 982.2c3.9 12.5-1 25.1-10.9 28.1-9.8 3-20.9-4.7-24.7-17.2-3.8-12.5 1.1-25.1 10.9-28.1 9.8-3 20.9 4.7 24.7 17.2z"/><path class="j" d="m339.1 1049.5c0 0 13.9 4.3 21.9 15.2 7.9 11 9.2 26.2 9.5 34 0.4 7.8 2.5 38 2.5 38l-23.6 6.6z"/><path class="y" d="m439.1 1655.3c0 0 17.7 23.8 15.3 27.6-2.5 3.7-21.1 4.3-32.4 0-11.3-4.3-11.6-32.3-16.7-44.3-2.2-5 2.4-19.8 8.9-20.9 6.4-1 13.5 2.1 13.5 2.1 0 0-6.7 16.9 11.4 35.5z"/><path class="z" d="m427.8 1619.6c0 0 3.7 10.2 5.1 19.8 1.1 8.1 12.6 25.1 12 27.3-0.5 2.1-15.1 4.1-21-1.5-5.9-5.5-9.8-21.7-11.1-31.4-1.2-9-2.7-13.4-2.7-13.4 0 0 12-6.7 17.7-0.8z"/><path class="y" d="m285.1 1655.7c0 0 17.1 23.4 14.6 27.2-2.4 3.7-21 4.3-32.3 0-11.3-4.3-11.6-32.3-16.7-44.3-2.2-5 2.4-19.8 8.9-20.9 6.4-1 14 2.3 14 2.3 0 0-6.6 17.1 11.5 35.7z"/><path class="z" d="m273.6 1620c0 0 1.3 11.1 3.5 18.9 2.1 7.8 13.7 25.6 13.2 27.8-0.5 2.1-15.1 4.1-21-1.5-6-5.5-10.6-21.6-11.1-31.4-0.5-9.7 1.4-16.1 1.4-16.1 0 0 8.3-3.6 14 2.3z"/><path class="z" d="m358.8 1232.3c0 0 15.2 70.6 18.7 88.4 3.5 17.8 13.2 103.9 14.3 118.5 1 14.7 15.8 69.9 15.1 75.1-0.7 5.2 21.9 110.3 21.9 110.3 0 0-7.7 6.2-15.8 0.5-4.2-2.9-49.7-98.3-49.7-124.5 0-36.1-26.7-83.3-30.2-91.4-32-75.1-25.7-98.1-29.9-102.9-4.2-4.9-4.5 3-7 13.8-2.4 10.8-7.6 104.2-10.8 116.1-3.1 11.8-0.7 51.9-2.4 72.1-1.8 20.3-9.4 111.7-9.4 111.7 0 0-5.9 9.3-14.3 0.3-1.8-2-14.3-101.9-14.7-126-0.3-24-0.7-57.2-1.4-67.6-6.4-99.7-22.3-113.9 2.7-184.5 46.8-132.1 112.9-9.9 112.9-9.9z"/><path class="j" d="m358.8 1232.3c8.2 20.7 31 153.4 31 153.4-55 30.1-157.6 16.2-157.6 16.2-18.6-128.8 24.6-189.3 24.6-189.3 0 0 93.8-1 102 19.7z"/><path class="y" d="m408 1642.2v19.3h-3.2v-24.9z"/><path class="y" d="m253.4 1642.2v19.3h-3.2v-24.9z"/><path class="j" d="m314.9 1040.6c0 0 18.7 7.7 24.2 8.9 5.6 1.1 24.3 28.7 28 38.9 3.8 10.1 0 25.4-7.7 43.3-7.8 18-0.5 23.9-4 41.9-3.6 17.9 7.9 56.1 8.5 66.1 0.7 9.9-104 11.5-124.6-6.6 0 0 20.7-31 23.4-35.4 2.6-4.4 0.4-28.6-2-34.8-2.5-6.2-18.7-58.9-18.7-58.9 0 0-13.2-40.4-1.2-49.7 10.4-8.1 38.7-11 43.8-12.8 5.1-1.7 19.9-2.5 30.3-0.9z"/><path class="z" d="m322.5 1022.2c0 0-0.4 4-1 9.5-0.2 2.4-0.4 5.2-0.7 8-0.6 8.1-1.1 16.8-0.8 21.2 0 0-16.6 16.6-35.4-19.4 0 0 7.9-14.8 2-35-6-20.2 35.9 15.7 35.9 15.7z"/><path class="z" d="m364.1 1155.7l2.8 6.7-5.9-4.2z"/><path class="E" d="m328.1 930.3c0 0 37.2 11.7 17 75.8-20.1 64-70.8-7.5-65.5-46.5 5.3-39 48.5-29.3 48.5-29.3z"/><path class="D" d="m348.9 967.7c0 0-18.4 18.1-49.3 20.4 0 0-11.9 13.9-12.8 19.3 0 0-32.3-53.9 6.3-75 40.9-22.4 68.3 23.7 55.8 35.3z"/><path class="E" d="m294.3 998.7c-4.6 1.3-11.9-20.3-5-23.3 6.9-3 9.8 7.7 10.1 12.3 0.5 11-5.1 11-5.1 11z"/><path class="F" d="m321.5 1031.7c-0.2 2.4-0.4 5.2-0.7 8-21.4-10.6-24.7-25.9-24.8-26.3 16.4 18.3 25.5 18.3 25.5 18.3z"/><path class="G" d="m369.1 1098.3c0 0 1 22.5-4.1 35.5l-4.6-2.5c0 0 8.6-22.5 8.7-33z"/><path class="z" d="m288.5 1171.6c0 0 8.6-5.7 9.9-6.5 1.4-0.8 6-0.5 10.9 1 4.6 1.5 9.9 3.5 11.4 4.3 0.7 0.4 1.5 0.6 1.2 2.8-0.4 2.2-1.9 3.9-1.9 3.9 0 0 0.9 2.9-1.1 4.9 0 0 0.7 2.7-1.9 4.6 0 0 0.6 2.7-1.4 3.9 0 0-4.4 0.6-6.1 0.2-2.3-0.5-14.6-3.3-23.2-5.6 0 0-3.5-2.1 2.2-13.5z"/><path class="z" d="m318.1 1169.7c0 0 22.2 4.9 21.9 6.6-0.4 2.5-5.9 3.4-22.7-1.2-16.4-4.5 0.8-5.4 0.8-5.4z"/><path class="j" d="m253.7 1111.8c-4.2 6.3-13.4 29.7-13.4 29.7 16.1 5.7 14.9 6.7 24.6 10.6 10.9 4.4 29.8 13.4 29.8 13.4l-5.5 23.4c0 0-43-16.1-57.8-19.6-14.4-3.4-24-8.7-28.6-13.3-4.7-4.5 11-42.1 15.6-50.4 4.6-8.2 10-26.2 16.5-42 6.6-15.8 23.4-16.1 28.5-13.1 22.6 13.8-5.6 55.1-9.7 61.3z"/><path class="H" d="m314.1 1199.3l55.6-102.1c1.5-2.7 4.2-4.3 7.3-4.3l61.7 0.6c6.3 0.1 10.2 7.1 6.9 12.5l-59.7 96.8c-1.4 2.2-3.7 3.7-6.3 3.9l-57.6 4.6c-6.5 0.6-11-6.3-7.9-12z"/><path class="z" d="m405.7 1168.6c1.3-1.9-8.4-4.1-9.1-6.5-0.8-2.3 5.3-3 5.3-3 0 0-3.3 0-4.3-2.1-1.1-2.2 5.8-3.5 5.8-3.5 0 0-5.1 0.7-5.8-1.7-0.6-2.5 8-3.3 8-3.3 0 0-5.6-1-2.8-3.6 2.8-2.6 18.5-2.2 19.5-1.1 1 1.2-9.6 19.2-12.8 23.9-3.3 4.7-6.9 8-6.9 8 0 0 1.8-5.2 3.1-7.1z"/><path class="z" d="m324.4 1044.4c0 0 11.2 30.9-5.3 31.3-16.4 0.4-37.2-33.5-37.2-33.5 29.8-8 42.5 2.2 42.5 2.2z"/><path class="I" d="m390.2 1155.9c-5.6 5.5-13.1 7-16.8 3.3-3.7-3.7-2.2-11.2 3.3-16.8 5.6-5.5 13.1-7.1 16.8-3.3 3.8 3.7 2.3 11.2-3.3 16.8z"/><path class="D" d="m351.9 958.8c0 0 2.3 8.9-1.6 24.5 0 0 0.6-14.7-2.4-18.7-3.1-4 4-5.8 4-5.8z"/></svg>